<svg xmlns="http://www.w3.org/2000/svg" viewBox="0 0 64 64" role="img" aria-label="Curtis Bitton Web Design">
  <rect width="64" height="64" rx="12" fill="#070806"/>
  <rect x="7" y="7" width="50" height="50" rx="10" fill="#0e100c" stroke="#4fd3b6" stroke-opacity=".58" stroke-width="2"/>
  <path d="M20 38.5c-2.1-2.1-3.1-4.6-3.1-7.5s1-5.4 3.1-7.5 4.7-3.2 7.8-3.2c3 0 5.5 1 7.4 3l-3.2 4.1c-1.2-1.1-2.5-1.7-4.1-1.7-1.5 0-2.8.5-3.8 1.5-1 1-1.5 2.3-1.5 3.8s.5 2.8 1.5 3.8c1 1 2.3 1.5 3.8 1.5 1.7 0 3.1-.6 4.2-1.9l3.3 3.9c-2 2.2-4.6 3.3-7.7 3.3-3 0-5.6-1-7.7-3.1Z" fill="#f7efe0"/>
  <path d="M36.9 20.9h9.7c2.7 0 4.8.6 6.2 1.8 1.4 1.2 2.1 2.8 2.1 4.8 0 1.2-.3 2.2-.9 3.1-.6.9-1.4 1.5-2.5 2 1.3.4 2.3 1.1 3 2.1.7 1 1.1 2.2 1.1 3.7 0 2.2-.8 3.9-2.4 5.1-1.6 1.2-3.8 1.8-6.7 1.8h-9.6V20.9Zm9.1 9.8c2.1 0 3.1-.8 3.1-2.4 0-1.5-1-2.2-3.1-2.2h-3.6v4.6H46Zm.6 9.4c2.2 0 3.3-.8 3.3-2.5s-1.1-2.5-3.3-2.5h-4.2v5h4.2Z" fill="#4fd3b6"/>
  <path d="M14 50h36" stroke="#d5aa5f" stroke-width="3" stroke-linecap="round" opacity=".85"/>
</svg>
